<svg width="16" height="16" viewBox="0 0 16 16" fill="none" xmlns="http://www.w3.org/2000/svg">
<path d="M3.21134 11.9998H6.2655C6.42191 12.4757 6.64349 12.922 6.91966 13.3282C6.83571 13.3315 6.75134 13.3332 6.66658 13.3332H1.93896C1.40119 13.3332 1.08473 12.7292 1.39084 12.287L2.04974 11.3353C0.985297 10.2022 0.333252 8.67716 0.333252 6.99984C0.333252 3.50203 3.16878 0.666504 6.66658 0.666504C9.53416 0.666504 11.9566 2.57228 12.7365 5.18636C12.2894 5.06475 11.8189 4.99984 11.3333 4.99984C11.3057 4.99984 11.2782 5.00005 11.2508 5.00046C10.4794 3.23422 8.71715 1.99984 6.66658 1.99984C3.90516 1.99984 1.66659 4.23841 1.66659 6.99984C1.66659 8.32469 2.1801 9.52668 3.02153 10.4224L3.75955 11.208L3.21134 11.9998ZM12.5591 12.9998L13.3584 12.0682C13.7591 11.6011 13.9999 10.997 13.9999 10.3332C13.9999 8.86041 12.806 7.6665 11.3333 7.6665C9.86049 7.6665 8.66658 8.86041 8.66658 10.3332C8.66658 11.8059 9.86049 12.9998 11.3333 12.9998H12.5591ZM14.6434 13.1707C15.0967 13.5761 14.8114 14.3332 14.1977 14.3332H11.3333C9.12411 14.3332 7.33325 12.5423 7.33325 10.3332C7.33325 8.12403 9.12411 6.33317 11.3333 6.33317C13.5424 6.33317 15.3333 8.12403 15.3333 10.3332C15.3333 11.326 14.9716 12.2343 14.3727 12.9336L14.3703 12.9364L14.6316 13.1603L14.6434 13.1707Z" fill="#1F2329"/>
</svg>
