<svg preserveAspectRatio="none" overflow="visible" style="display: block;" width="14" height="14" viewBox="0 0 14 14" fill="none" xmlns="http://www.w3.org/2000/svg">
<g id="24x24">
<g id="Union">
<path d="M4.61754 8.46805C4.74196 8.20616 5.05541 8.09435 5.31735 8.21871L4.86687 9.16721C4.60504 9.04282 4.49335 8.7299 4.61754 8.46805Z" fill="#6F5FF4"/>
<path fill-rule="evenodd" clip-rule="evenodd" d="M8.90893 0.74959C9.49532 0.743434 10.1021 0.926282 10.5707 1.32602C10.9616 1.65951 11.2347 2.12643 11.3226 2.7025C12.1653 2.92997 12.8107 3.45274 13.0949 4.1561C13.3799 4.86145 13.2611 5.64899 12.755 6.33135C13.1639 6.94712 13.2985 7.73462 13.2337 8.46805C13.243 8.50706 13.2485 8.54766 13.2485 8.5895C13.2485 9.65911 12.6375 10.5852 11.7461 11.0404C11.3857 12.2912 10.3624 13.1141 9.26944 13.2343C8.67752 13.2995 8.06589 13.1562 7.55365 12.7614C7.34472 12.6003 7.15952 12.402 7.00036 12.1689C6.84119 12.4019 6.65598 12.6003 6.44707 12.7614C5.93495 13.1561 5.32372 13.2994 4.73193 13.2343C3.63386 13.1136 2.60539 12.2837 2.2495 11.0231C1.42296 10.5783 0.955023 9.66263 0.806186 8.78036C0.668696 7.96525 0.777625 7.03559 1.24509 6.33135C0.739233 5.64909 0.620938 4.86131 0.905791 4.1561C1.18996 3.45279 1.83546 2.92999 2.67813 2.7025C2.766 2.12642 3.03909 1.65952 3.42999 1.32602C3.89865 0.926259 4.50543 0.743461 5.09179 0.74959C5.67854 0.755789 6.28362 0.951347 6.7491 1.36008C6.83954 1.43949 6.92342 1.5263 7.00036 1.61969C7.07732 1.52626 7.1618 1.43952 7.25226 1.36008C7.71773 0.951507 8.32233 0.755788 8.90893 0.74959ZM6.47534 3.1639C6.47534 2.68649 6.29767 2.36166 6.05571 2.14921C5.80349 1.92785 5.45095 1.80353 5.08087 1.79962C4.71049 1.79573 4.36073 1.91308 4.1118 2.12543C3.87395 2.32836 3.69796 2.64225 3.69796 3.11249V3.13241C3.69935 3.39459 3.50701 3.61753 3.24748 3.65486C2.48633 3.76413 2.04025 4.15288 1.88 4.54938C1.76069 4.84465 1.76925 5.22075 2.02266 5.61226C2.44264 5.35259 2.93797 5.20163 3.4679 5.20163C3.75778 5.20179 3.99292 5.43738 3.99292 5.72729C3.99274 6.01706 3.75767 6.25215 3.4679 6.25231C3.00422 6.25231 2.5845 6.43696 2.27713 6.73813C2.25473 6.76008 2.23018 6.77883 2.20516 6.79596C1.86554 7.21144 1.72252 7.89674 1.84208 8.60557C1.96417 9.32935 2.32679 9.89531 2.79315 10.1234L2.88762 10.1646L2.94867 10.1922C3.08635 10.2658 3.18523 10.3979 3.21599 10.5533C3.4092 11.5309 4.14708 12.1131 4.84631 12.1901C5.19067 12.228 5.52594 12.1454 5.80574 11.9298C6.07893 11.7192 6.33483 11.3521 6.47534 10.757V9.39791C6.33534 9.41988 6.19194 9.43261 6.04607 9.43261C5.62511 9.43258 5.22492 9.33736 4.86687 9.16721L5.09243 8.69296L5.31735 8.21871C5.53756 8.32331 5.78426 8.38191 6.04607 8.38194C6.19477 8.38194 6.3385 8.36222 6.47534 8.32667V4.77751C6.28942 4.79975 6.11346 4.85229 5.95161 4.92916C5.68965 5.0536 5.37625 4.94179 5.2518 4.67983C5.12743 4.41793 5.23865 4.1045 5.50049 3.98002C5.79999 3.83775 6.12936 3.74916 6.47534 3.72362V3.1639ZM7.52538 6.67515C7.84447 6.54574 8.19338 6.47401 8.5587 6.47401C8.84863 6.47409 9.08364 6.70913 9.08372 6.99903C9.08372 7.28902 8.84868 7.52397 8.5587 7.52405C8.16946 7.52405 7.81215 7.65564 7.52538 7.87556V10.757C7.66588 11.3521 7.92181 11.7192 8.19498 11.9298C8.47479 12.1454 8.81005 12.228 9.15441 12.1901C9.63853 12.1368 10.1403 11.841 10.4679 11.3399C10.1101 11.3362 9.76764 11.2648 9.45387 11.1362L9.31763 11.0758L9.27008 11.0507C9.04242 10.9129 8.95177 10.6222 9.0683 10.3766C9.18499 10.1309 9.46784 10.0173 9.71862 10.1067L9.7681 10.1273L9.85164 10.1646C10.05 10.2459 10.2676 10.2911 10.4968 10.2911C10.685 10.2911 10.8655 10.2589 11.0347 10.2025C11.0596 10.1879 11.0857 10.175 11.1131 10.1646C11.6246 9.97006 12.0291 9.37753 12.1593 8.60557C12.2891 7.8356 12.1089 7.09315 11.7037 6.69443C11.6034 6.59579 11.5469 6.46106 11.5469 6.32043C11.5469 6.17969 11.6034 6.0445 11.7037 5.94578C12.2177 5.43995 12.2743 4.92785 12.1214 4.54938C12.0012 4.25205 11.72 3.9593 11.266 3.78531C11.0884 4.48158 10.6121 5.05757 9.98145 5.36743C9.72119 5.49529 9.40635 5.38801 9.27843 5.12773C9.15069 4.86749 9.25858 4.55256 9.51877 4.42471L9.60295 4.37973C10.0163 4.13975 10.2925 3.69301 10.2925 3.18253C10.2925 3.1494 10.2956 3.11693 10.3015 3.0855C10.2949 2.63035 10.1227 2.32445 9.88956 2.12543C9.64058 1.91303 9.29028 1.79572 8.91985 1.79962C8.54975 1.80354 8.1972 1.92781 7.945 2.14921C7.73334 2.33507 7.57105 2.60695 7.53373 2.99168L7.52538 3.1639V6.67515Z" fill="#6F5FF4"/>
</g>
</g>
</svg>
