<svg preserveAspectRatio="none" overflow="visible" style="display: block;" width="16" height="16" viewBox="0 0 16 16" fill="none" xmlns="http://www.w3.org/2000/svg">
<g id="icon_tab-todo_filled">
<g id="Union">
<path d="M13.4664 2.42061C13.206 2.16026 12.7839 2.16026 12.5235 2.42061L4.03329 10.9109C3.77294 11.1712 3.77294 11.5933 4.03329 11.8537L5.91891 13.7393C6.17926 13.9996 6.60137 13.9996 6.86172 13.7393L15.352 5.24903C15.6123 4.98869 15.6123 4.56658 15.352 4.30623L13.4664 2.42061Z" fill="black" fill-opacity="0.4"/>
<path d="M3.09063 5.25381C2.83028 4.99346 2.40817 4.99346 2.14783 5.25381L0.262208 7.13942C0.00185755 7.39977 0.00185826 7.82188 0.262208 8.08223L2.14783 9.96785C2.40818 10.2282 2.83028 10.2282 3.09064 9.96785L4.97625 8.08223C5.2366 7.82188 5.2366 7.39977 4.97625 7.13942L3.09063 5.25381Z" fill="black" fill-opacity="0.4"/>
</g>
</g>
</svg>
