<svg preserveAspectRatio="none" overflow="visible" style="display: block;" width="36" height="32" viewBox="0 0 36 32" fill="none" xmlns="http://www.w3.org/2000/svg">
<g id="[D] Switch">
<path d="M8 14C8 9.58172 11.5817 6 16 6H28C32.4183 6 36 9.58172 36 14V14C36 18.4183 32.4183 22 28 22H16C11.5817 22 8 18.4183 8 14V14Z" fill="#D0D3D6"/>
<g id="Switch-handler" filter="url(#filter0_ddd_0_4)">
<path fill-rule="evenodd" clip-rule="evenodd" d="M16 20C19.3137 20 22 17.3137 22 14C22 10.6863 19.3137 8 16 8C12.6863 8 10 10.6863 10 14C10 17.3137 12.6863 20 16 20Z" fill="white"/>
</g>
</g>
<defs>
<filter id="filter0_ddd_0_4" x="0" y="0" width="32" height="32" filterUnits="userSpaceOnUse" color-interpolation-filters="sRGB">
<feFlood flood-opacity="0" result="BackgroundImageFix"/>
<feColorMatrix in="SourceAlpha" type="matrix" values="0 0 0 0 0 0 0 0 0 0 0 0 0 0 0 0 0 0 127 0" result="hardAlpha"/>
<feMorphology radius="2" operator="erode" in="SourceAlpha" result="effect1_dropShadow_0_4"/>
<feOffset dy="1"/>
<feGaussianBlur stdDeviation="1"/>
<feColorMatrix type="matrix" values="0 0 0 0 0.121569 0 0 0 0 0.137255 0 0 0 0 0.160784 0 0 0 0.02 0"/>
<feBlend mode="normal" in2="BackgroundImageFix" result="effect1_dropShadow_0_4"/>
<feColorMatrix in="SourceAlpha" type="matrix" values="0 0 0 0 0 0 0 0 0 0 0 0 0 0 0 0 0 0 127 0" result="hardAlpha"/>
<feOffset dy="2"/>
<feGaussianBlur stdDeviation="2"/>
<feColorMatrix type="matrix" values="0 0 0 0 0.121569 0 0 0 0 0.137255 0 0 0 0 0.160784 0 0 0 0.02 0"/>
<feBlend mode="normal" in2="effect1_dropShadow_0_4" result="effect2_dropShadow_0_4"/>
<feColorMatrix in="SourceAlpha" type="matrix" values="0 0 0 0 0 0 0 0 0 0 0 0 0 0 0 0 0 0 127 0" result="hardAlpha"/>
<feMorphology radius="2" operator="dilate" in="SourceAlpha" result="effect3_dropShadow_0_4"/>
<feOffset dy="2"/>
<feGaussianBlur stdDeviation="4"/>
<feColorMatrix type="matrix" values="0 0 0 0 0.121569 0 0 0 0 0.137255 0 0 0 0 0.160784 0 0 0 0.02 0"/>
<feBlend mode="normal" in2="effect2_dropShadow_0_4" result="effect3_dropShadow_0_4"/>
<feBlend mode="normal" in="SourceGraphic" in2="effect3_dropShadow_0_4" result="shape"/>
</filter>
</defs>
</svg>
