<svg preserveAspectRatio="none" overflow="visible" style="display: block;" width="10" height="10" viewBox="0 0 10 10" fill="none" xmlns="http://www.w3.org/2000/svg">
<g id="icon_later_outlined">
<path id="Union" d="M2.08333 1.24997H7.91667V8.59504L5.59931 7.32907C5.41551 7.22865 5.20943 7.17603 5 7.17603C4.79057 7.17603 4.58442 7.22869 4.40062 7.32911L2.08333 8.59504V1.24997ZM5.19979 8.06039C5.31286 8.12216 6.53744 8.79123 7.51719 9.32653C8.07252 9.62994 8.75 9.228 8.75 8.59519V1.2501C8.75 0.789863 8.3769 0.416767 7.91667 0.416767H2.08333C1.6231 0.416767 1.25 0.789863 1.25 1.2501V8.59519C1.25 9.228 1.92748 9.62994 2.48281 9.32653C3.46256 8.79123 4.68714 8.12216 4.80021 8.06039C4.86148 8.02691 4.93018 8.00937 5 8.00937C5.06982 8.00937 5.13852 8.02691 5.19979 8.06039Z" fill="white"/>
</g>
</svg>
